<svg xmlns="http://www.w3.org/2000/svg" viewBox="0 0 434.42 307.21"><defs><style>.cls-1{fill:#fee9d9;}.cls-1,.cls-2,.cls-3{stroke:#514f4f;stroke-miterlimit:10;stroke-width:2px;}.cls-2{fill:#eed3be;}.cls-3,.cls-5{fill:none;}.cls-4{fill:#514f4f;}</style></defs><g id="Layer_2" data-name="Layer 2"><g id="LOP"><path class="cls-1" d="M80.06,230.31C80.73,235,116.73,273,131.39,289s12,12,29.34,5.33c10.9-4.19,33-12.11,36.67-24.75,1-3.29.59-6.81,0-10.17-1.36-7.53-3.95-15-8.61-21-3.68-4.78-10.83-11.15-17.35-11.09s-10.47,3.71-17.36,1c-12-4.66-45.09-24-62.55-46.66s-47.2,0-47.2,0Z"/><path class="cls-2" d="M5.53,186.53c2.14,8.31,5.11,16.75,11.11,22.88s14.46,9.64,18.12,17.19c1.94,4,2.23,8.64,4.17,12.63,3.4,7,11,10.63,18.13,13.76l29.67,13.12c9.26,4.1,19.46,8.28,29.23,5.58L84.29,213.21l-13.53-25c-3-5.52-6-11.06-8.43-16.86-1.48-3.53-2.76-7.15-4-10.78C53,144.91,47.79,128.83,45.47,112.4c-1.21-8.49,0-24.63-6-31.55-15.87-18.36-36.11,44.72-37.37,54A135,135,0,0,0,5.53,186.53Z"/><path class="cls-1" d="M208,7.5S175.13,1,167,7.5s-20.79,22-40.11,35.08S83.45,72.85,73,76.12s-44.86,8.17-35,42.49,3.78,53.92,19.88,58.82S92,184,106.69,197A27.29,27.29,0,0,0,98,178.55l-8.68-8s10.85-18.08,20.25-47S127.66,65.72,158,49.09,208,32.45,208,32.45Z"/><path class="cls-3" d="M208,13.15c-14.06-5.36-31,3.65-43,12.74-9.19,7-18.43,14-26.28,22.47-9.42,10.16-16.66,22.23-26.45,32C101.2,91.48,87.33,99.23,74.54,108.25S49.46,128.29,44,143"/><path class="cls-4" d="M112.26,80.4C101.2,91.48,87.33,99.23,74.54,108.25s-25.42,22.89-30.92,37.54c.83-3.06-1.59-12.38-2.69-15.36-1.82-5,1.94-6,5.9-9.49a219.45,219.45,0,0,1,59.28-37.35"/><path class="cls-5" d="M112.26,80.4C101.2,91.48,87.33,99.23,74.54,108.25S49.46,128.29,44,143c.83-3.07-2.37-5.62-3.46-8.6-1.82-4.95,2.37-9.93,6.33-13.41a219.45,219.45,0,0,1,59.28-37.35"/><path class="cls-4" d="M92.1,167.67a9.23,9.23,0,0,1-1.41,2.49,12.69,12.69,0,0,1-1.91,2,12.55,12.55,0,0,1-2.28,1.55,6.59,6.59,0,0,1-2.63.76,24.51,24.51,0,0,0,2-1.66,17.59,17.59,0,0,0,1.77-1.79A15.27,15.27,0,0,0,90.24,167Z"/><path class="cls-1" d="M354.71,230.31C354,235,318,273,303.37,289s-12,12-29.33,5.33c-10.9-4.19-33-12.11-36.68-24.75-1-3.29-.59-6.81,0-10.17,1.36-7.53,4-15,8.62-21,3.67-4.78,10.83-11.15,17.35-11.09s10.46,3.71,17.36,1c12-4.66,45.09-24,62.54-46.66s47.21,0,47.21,0Z"/><path class="cls-2" d="M428.9,186.53c-2.15,8.31-5.12,16.75-11.12,22.88s-14.46,9.64-18.12,17.19c-1.94,4-2.23,8.64-4.17,12.63-3.39,7-11,10.63-18.13,13.76L347.7,266.11c-9.27,4.1-19.47,8.28-29.24,5.58l31.67-58.48,13.53-25c3-5.52,6-11.06,8.43-16.86,1.49-3.53,2.76-7.15,4-10.78,5.3-15.68,10.55-31.76,12.88-48.19,1.2-8.49,0-24.63,6-31.55,15.87-18.36,36.11,44.72,37.37,54A135.22,135.22,0,0,1,428.9,186.53Z"/><path class="cls-1" d="M226.46,7.5s32.83-6.54,40.92,0,20.79,22,40.11,35.08S351,72.85,361.42,76.12s44.86,8.17,35,42.49-3.78,53.92-19.88,58.82S342.41,184,327.73,197a27.29,27.29,0,0,1,8.68-18.49l8.68-8s-10.84-18.08-20.25-47-18.08-57.86-48.45-74.49-49.93-16.64-49.93-16.64Z"/><path class="cls-3" d="M226.46,13.15c14.06-5.36,31,3.65,43,12.74,9.19,7,18.43,14,26.28,22.47,9.42,10.16,16.66,22.23,26.45,32,11.07,11.08,24.93,18.83,37.72,27.85s25.08,20,30.58,34.7"/><path class="cls-4" d="M322.16,80.4c11.07,11.08,24.93,18.83,37.72,27.85s25.42,22.89,30.92,37.54c-.83-3.06,1.6-12.38,2.69-15.36,1.82-5-1.94-6-5.9-9.49a219.45,219.45,0,0,0-59.28-37.35"/><path class="cls-4" d="M344.19,167a15,15,0,0,0,2.57,4.09,17.59,17.59,0,0,0,1.77,1.79,24.51,24.51,0,0,0,2,1.66,6.59,6.59,0,0,1-2.63-.76,12.55,12.55,0,0,1-2.28-1.55,12.69,12.69,0,0,1-1.91-2,9.23,9.23,0,0,1-1.41-2.49Z"/><path class="cls-1" d="M273.92,271a131.78,131.78,0,0,0-11-42.54,4.89,4.89,0,0,0-5.89-3.76c-6.52.36-12.58.21-18.73,1.32-5.21-9.48-17.45-14.61-21.12-14.56s-15.91,5.08-21.12,14.56c-6.15-1.11-12.21-1-18.73-1.32a4.89,4.89,0,0,0-5.89,3.76,131.78,131.78,0,0,0-11,42.54c-.42,4.93-.38,10.42,2.87,14.14s9,4.52,14.07,4.12,10.17-1.62,15.15-.63c5.29,1,9.77,4.46,14,7.77,3.48,2.71,9.39,8.48,10.59,9.47,1.2-1,7.11-6.76,10.59-9.47,4.26-3.31,8.74-6.73,14-7.77,5-1,10.08.24,15.14.63s10.73-.3,14.07-4.12S274.34,276,273.92,271Z"/><path class="cls-3" d="M173.42,252.65c12.39-9.43,18.34-21.16,27.75-33.57"/><path class="cls-3" d="M261,252.65c-12.4-9.43-18.35-21.16-27.76-33.57"/><path class="cls-1" d="M217.87,37.87h-.43c-4.86,0-9.32-2.85-10.05-6.8l-2.51-16.32A11.57,11.57,0,0,1,216.52,1h.69A12.4,12.4,0,0,1,229.8,14.65L227.43,31C227,35,222.72,37.85,217.87,37.87Z"/></g></g></svg>