<svg xmlns="http://www.w3.org/2000/svg" viewBox="0 0 169.52 210.31"><defs><style>.cls-1{fill:#fdd7c7;}.cls-1,.cls-3,.cls-4{stroke:#514f4f;stroke-miterlimit:10;stroke-width:2px;}.cls-2{fill:#828282;}.cls-3{fill:none;}.cls-4{fill:#fee9d9;}</style></defs><g id="Layer_2" data-name="Layer 2"><g id="LOP"><ellipse class="cls-1" cx="84.76" cy="105.16" rx="83.75" ry="104.16" transform="translate(-2.07 1.7) rotate(-1.13)"/><path class="cls-2" d="M73.47,46.73a30,30,0,0,0-8.26-3,32.87,32.87,0,0,0,8.93-4c4.43-2.89,7.76-8.77,10-17.49,3,8.47,6.88,14,11.56,16.47a51.38,51.38,0,0,0,9.14,3.79A32.06,32.06,0,0,0,95,46.3c-4.5,2.77-8,8.55-10.43,17.21C81.81,55,78.08,49.32,73.47,46.73Z"/><path class="cls-3" d="M156.52,52.18S113.58,35,94.28,46.81c-4.64,2.85-7.68,9.49-9.56,18.34-2.24-8.77-5.54-15.28-10.28-18-19.77-11.08-63.68,8.53-63.68,8.53"/><line class="cls-4" x1="84.72" y1="65.15" x2="87" y2="180.46"/><path class="cls-3" d="M59.62,43.88A32.16,32.16,0,0,0,75,39.2c4.56-3,7.41-9.7,9-18.6,2.48,8.71,6,15.12,10.77,17.66,4.49,2.35,10.26,4.68,16.48,4.42"/><line class="cls-4" x1="84" y1="20.6" x2="83.34" y2="0.98"/><path class="cls-1" d="M41.26,193.7c13.25,10.18,28.9,15.93,45.56,15.6,16.93-.34,32.56-6.9,45.52-17.91"/><path class="cls-2" d="M87,180.46c5.47,6.2,10.68,9.93,16.45,12a29.18,29.18,0,0,1-16.88,5.63A26.85,26.85,0,0,1,70.34,193,42,42,0,0,0,87,180.46Z"/><path class="cls-1" d="M132.34,191.39c-14.4,5.28-30.75,5.6-45.34-10.93"/><path class="cls-1" d="M40.66,193.21c14.6,4.7,32.41,4.35,46.34-12.75"/><path class="cls-3" d="M103.45,192.48a29.18,29.18,0,0,1-16.88,5.63A26.85,26.85,0,0,1,70.34,193"/></g></g></svg>